<?xml version="1.0" encoding="UTF-8" standalone="no"?>
<!DOCTYPE svg PUBLIC "-//W3C//DTD SVG 1.1//EN"
 "http://www.w3.org/Graphics/SVG/1.1/DTD/svg11.dtd">
<!-- Generated by graphviz version 2.47.0 (20210316.0004)
 -->
<!-- Title: dependencies Pages: 1 -->
<svg width="984pt" height="211pt"
 viewBox="0.00 0.00 984.00 211.00" xmlns="http://www.w3.org/2000/svg" xmlns:xlink="http://www.w3.org/1999/xlink">
<g id="graph0" class="graph" transform="scale(1 1) rotate(0) translate(4 207)">
<title>dependencies</title>
<polygon fill="white" stroke="transparent" points="-4,4 -4,-207 980,-207 980,4 -4,4"/>
<text text-anchor="start" x="467.01" y="-42.4" font-family="Times-12" font-weight="bold" font-size="14.00">Legend</text>
<polygon fill="#ffffb3" stroke="transparent" points="254,-10 254,-30 274,-30 274,-10 254,-10"/>
<text text-anchor="start" x="277.63" y="-15.4" font-family="Times-12" font-size="14.00"> &#160;Declarations</text>
<polygon fill="#8dd3c7" stroke="transparent" points="367,-10 367,-30 387,-30 387,-10 367,-10"/>
<text text-anchor="start" x="390.73" y="-15.4" font-family="Times-12" font-size="14.00"> &#160;Module</text>
<polygon fill="#80b1d3" stroke="transparent" points="453,-10 453,-30 473,-30 473,-10 453,-10"/>
<text text-anchor="start" x="476.78" y="-15.4" font-family="Times-12" font-size="14.00"> &#160;Bootstrap</text>
<polygon fill="#fdb462" stroke="transparent" points="550,-10 550,-30 570,-30 570,-10 550,-10"/>
<text text-anchor="start" x="573.67" y="-15.4" font-family="Times-12" font-size="14.00"> &#160;Providers</text>
<polygon fill="#fb8072" stroke="transparent" points="646,-10 646,-30 666,-30 666,-10 646,-10"/>
<text text-anchor="start" x="669.73" y="-15.4" font-family="Times-12" font-size="14.00"> &#160;Exports</text>
<g id="clust1" class="cluster">
<title>cluster_AppModule</title>
<polygon fill="none" stroke="black" stroke-dasharray="1,5" points="8,-70 8,-195 968,-195 968,-70 8,-70"/>
</g>
<g id="clust3" class="cluster">
<title>cluster_AppModule_imports</title>
<polygon fill="none" stroke="black" points="326,-78 326,-130 960,-130 960,-78 326,-78"/>
</g>
<g id="clust6" class="cluster">
<title>cluster_AppModule_providers</title>
<polygon fill="none" stroke="black" points="16,-78 16,-130 318,-130 318,-78 16,-78"/>
</g>
<!-- CoreModule -->
<g id="node1" class="node">
<title>CoreModule</title>
<polygon fill="#8dd3c7" stroke="black" points="952.26,-122 949.26,-126 928.26,-126 925.26,-122 865.74,-122 865.74,-86 952.26,-86 952.26,-122"/>
<text text-anchor="middle" x="909" y="-99.8" font-family="Times,serif" font-size="14.00">CoreModule</text>
</g>
<!-- AppModule -->
<g id="node6" class="node">
<title>AppModule</title>
<polygon fill="#8dd3c7" stroke="black" points="573.66,-187 570.66,-191 549.66,-191 546.66,-187 490.34,-187 490.34,-151 573.66,-151 573.66,-187"/>
<text text-anchor="middle" x="532" y="-164.8" font-family="Times,serif" font-size="14.00">AppModule</text>
</g>
<!-- CoreModule&#45;&gt;AppModule -->
<g id="edge1" class="edge">
<title>CoreModule&#45;&gt;AppModule</title>
<path fill="none" stroke="black" d="M909,-122.29C909,-144.21 909,-178 909,-178 909,-178 583.79,-178 583.79,-178"/>
<polygon fill="black" stroke="black" points="583.79,-174.5 573.79,-178 583.79,-181.5 583.79,-174.5"/>
</g>
<!-- DatabaseModule -->
<g id="node2" class="node">
<title>DatabaseModule</title>
<polygon fill="#8dd3c7" stroke="black" points="847.35,-122 844.35,-126 823.35,-126 820.35,-122 736.65,-122 736.65,-86 847.35,-86 847.35,-122"/>
<text text-anchor="middle" x="792" y="-99.8" font-family="Times,serif" font-size="14.00">DatabaseModule</text>
</g>
<!-- DatabaseModule&#45;&gt;AppModule -->
<g id="edge2" class="edge">
<title>DatabaseModule&#45;&gt;AppModule</title>
<path fill="none" stroke="black" d="M792,-122.11C792,-141.34 792,-169 792,-169 792,-169 583.77,-169 583.77,-169"/>
<polygon fill="black" stroke="black" points="583.77,-165.5 573.77,-169 583.77,-172.5 583.77,-165.5"/>
</g>
<!-- HealthModule -->
<g id="node3" class="node">
<title>HealthModule</title>
<polygon fill="#8dd3c7" stroke="black" points="718.37,-122 715.37,-126 694.37,-126 691.37,-122 621.63,-122 621.63,-86 718.37,-86 718.37,-122"/>
<text text-anchor="middle" x="670" y="-99.8" font-family="Times,serif" font-size="14.00">HealthModule</text>
</g>
<!-- HealthModule&#45;&gt;AppModule -->
<g id="edge3" class="edge">
<title>HealthModule&#45;&gt;AppModule</title>
<path fill="none" stroke="black" d="M670,-122.03C670,-138.4 670,-160 670,-160 670,-160 583.78,-160 583.78,-160"/>
<polygon fill="black" stroke="black" points="583.78,-156.5 573.78,-160 583.78,-163.5 583.78,-156.5"/>
</g>
<!-- ProductPricingModule -->
<g id="node4" class="node">
<title>ProductPricingModule</title>
<polygon fill="#8dd3c7" stroke="black" points="603.54,-122 600.54,-126 579.54,-126 576.54,-122 460.46,-122 460.46,-86 603.54,-86 603.54,-122"/>
<text text-anchor="middle" x="532" y="-99.8" font-family="Times,serif" font-size="14.00">ProductPricingModule</text>
</g>
<!-- ProductPricingModule&#45;&gt;AppModule -->
<g id="edge4" class="edge">
<title>ProductPricingModule&#45;&gt;AppModule</title>
<path fill="none" stroke="black" d="M532,-122.11C532,-122.11 532,-140.99 532,-140.99"/>
<polygon fill="black" stroke="black" points="528.5,-140.99 532,-150.99 535.5,-140.99 528.5,-140.99"/>
</g>
<!-- ProductsModule -->
<g id="node5" class="node">
<title>ProductsModule</title>
<polygon fill="#8dd3c7" stroke="black" points="442.04,-122 439.04,-126 418.04,-126 415.04,-122 333.96,-122 333.96,-86 442.04,-86 442.04,-122"/>
<text text-anchor="middle" x="388" y="-99.8" font-family="Times,serif" font-size="14.00">ProductsModule</text>
</g>
<!-- ProductsModule&#45;&gt;AppModule -->
<g id="edge5" class="edge">
<title>ProductsModule&#45;&gt;AppModule</title>
<path fill="none" stroke="black" d="M388,-122.03C388,-138.4 388,-160 388,-160 388,-160 479.96,-160 479.96,-160"/>
<polygon fill="black" stroke="black" points="479.96,-163.5 489.96,-160 479.96,-156.5 479.96,-163.5"/>
</g>
<!-- AppService -->
<g id="node7" class="node">
<title>AppService</title>
<ellipse fill="#fdb462" stroke="black" cx="253" cy="-104" rx="56.74" ry="18"/>
<text text-anchor="middle" x="253" y="-99.8" font-family="Times,serif" font-size="14.00">AppService</text>
</g>
<!-- AppService&#45;&gt;AppModule -->
<g id="edge6" class="edge">
<title>AppService&#45;&gt;AppModule</title>
<path fill="none" stroke="black" d="M253,-122.11C253,-141.34 253,-169 253,-169 253,-169 480.23,-169 480.23,-169"/>
<polygon fill="black" stroke="black" points="480.23,-172.5 490.23,-169 480.23,-165.5 480.23,-172.5"/>
</g>
<!-- ResponseService -->
<g id="node8" class="node">
<title>ResponseService</title>
<ellipse fill="#fdb462" stroke="black" cx="101" cy="-104" rx="77" ry="18"/>
<text text-anchor="middle" x="101" y="-99.8" font-family="Times,serif" font-size="14.00">ResponseService</text>
</g>
<!-- ResponseService&#45;&gt;AppModule -->
<g id="edge7" class="edge">
<title>ResponseService&#45;&gt;AppModule</title>
<path fill="none" stroke="black" d="M101,-122.29C101,-144.21 101,-178 101,-178 101,-178 480.28,-178 480.28,-178"/>
<polygon fill="black" stroke="black" points="480.28,-181.5 490.28,-178 480.28,-174.5 480.28,-181.5"/>
</g>
</g>
</svg>
