<?xml version="1.0" encoding="UTF-8" standalone="no"?>
<!DOCTYPE svg PUBLIC "-//W3C//DTD SVG 1.1//EN"
 "http://www.w3.org/Graphics/SVG/1.1/DTD/svg11.dtd">
<!-- Generated by graphviz version 2.47.0 (20210316.0004)
 -->
<!-- Title: dependencies Pages: 1 -->
<svg width="1477pt" height="279pt"
 viewBox="0.00 0.00 1477.00 279.00" xmlns="http://www.w3.org/2000/svg" xmlns:xlink="http://www.w3.org/1999/xlink">
<g id="graph0" class="graph" transform="scale(1 1) rotate(0) translate(4 275)">
<title>dependencies</title>
<polygon fill="white" stroke="transparent" points="-4,4 -4,-275 1473,-275 1473,4 -4,4"/>
<text text-anchor="start" x="713.51" y="-42.4" font-family="Times-12" font-weight="bold" font-size="14.00">Legend</text>
<polygon fill="#ffffb3" stroke="transparent" points="500.5,-10 500.5,-30 520.5,-30 520.5,-10 500.5,-10"/>
<text text-anchor="start" x="524.13" y="-15.4" font-family="Times-12" font-size="14.00"> &#160;Declarations</text>
<polygon fill="#8dd3c7" stroke="transparent" points="613.5,-10 613.5,-30 633.5,-30 633.5,-10 613.5,-10"/>
<text text-anchor="start" x="637.23" y="-15.4" font-family="Times-12" font-size="14.00"> &#160;Module</text>
<polygon fill="#80b1d3" stroke="transparent" points="699.5,-10 699.5,-30 719.5,-30 719.5,-10 699.5,-10"/>
<text text-anchor="start" x="723.28" y="-15.4" font-family="Times-12" font-size="14.00"> &#160;Bootstrap</text>
<polygon fill="#fdb462" stroke="transparent" points="796.5,-10 796.5,-30 816.5,-30 816.5,-10 796.5,-10"/>
<text text-anchor="start" x="820.17" y="-15.4" font-family="Times-12" font-size="14.00"> &#160;Providers</text>
<polygon fill="#fb8072" stroke="transparent" points="892.5,-10 892.5,-30 912.5,-30 912.5,-10 892.5,-10"/>
<text text-anchor="start" x="916.23" y="-15.4" font-family="Times-12" font-size="14.00"> &#160;Exports</text>
<g id="clust1" class="cluster">
<title>cluster_AppModule</title>
<polygon fill="none" stroke="black" stroke-dasharray="1,5" points="8,-70 8,-263 690,-263 690,-70 8,-70"/>
</g>
<g id="clust3" class="cluster">
<title>cluster_AppModule_imports</title>
<polygon fill="none" stroke="black" points="48,-146 48,-198 682,-198 682,-146 48,-146"/>
</g>
<g id="clust6" class="cluster">
<title>cluster_AppModule_providers</title>
<polygon fill="none" stroke="black" points="80,-78 80,-130 382,-130 382,-78 80,-78"/>
</g>
<g id="clust25" class="cluster">
<title>cluster_ProductPersistenceModule</title>
<polygon fill="none" stroke="black" stroke-dasharray="1,5" points="1122,-78 1122,-206 1461,-206 1461,-78 1122,-78"/>
</g>
<g id="clust28" class="cluster">
<title>cluster_ProductPersistenceModule_exports</title>
<polygon fill="none" stroke="black" points="1130,-146 1130,-198 1453,-198 1453,-146 1130,-146"/>
</g>
<g id="clust31" class="cluster">
<title>cluster_ProductPricingModule</title>
<polygon fill="none" stroke="black" stroke-dasharray="1,5" points="698,-70 698,-138 926,-138 926,-70 698,-70"/>
</g>
<g id="clust36" class="cluster">
<title>cluster_ProductPricingModule_providers</title>
<polygon fill="none" stroke="black" points="706,-78 706,-130 918,-130 918,-78 706,-78"/>
</g>
<g id="clust37" class="cluster">
<title>cluster_ProductsModule</title>
<polygon fill="none" stroke="black" stroke-dasharray="1,5" points="934,-70 934,-138 1114,-138 1114,-70 934,-70"/>
</g>
<g id="clust42" class="cluster">
<title>cluster_ProductsModule_providers</title>
<polygon fill="none" stroke="black" points="942,-78 942,-130 1106,-130 1106,-78 942,-78"/>
</g>
<!-- CoreModule -->
<g id="node1" class="node">
<title>CoreModule</title>
<polygon fill="#8dd3c7" stroke="black" points="271.26,-190 268.26,-194 247.26,-194 244.26,-190 184.74,-190 184.74,-154 271.26,-154 271.26,-190"/>
<text text-anchor="middle" x="228" y="-167.8" font-family="Times,serif" font-size="14.00">CoreModule</text>
</g>
<!-- AppModule -->
<g id="node6" class="node">
<title>AppModule</title>
<polygon fill="#8dd3c7" stroke="black" points="269.66,-255 266.66,-259 245.66,-259 242.66,-255 186.34,-255 186.34,-219 269.66,-219 269.66,-255"/>
<text text-anchor="middle" x="228" y="-232.8" font-family="Times,serif" font-size="14.00">AppModule</text>
</g>
<!-- CoreModule&#45;&gt;AppModule -->
<g id="edge1" class="edge">
<title>CoreModule&#45;&gt;AppModule</title>
<path fill="none" stroke="black" d="M228,-190.11C228,-190.11 228,-208.99 228,-208.99"/>
<polygon fill="black" stroke="black" points="224.5,-208.99 228,-218.99 231.5,-208.99 224.5,-208.99"/>
</g>
<!-- DatabaseModule -->
<g id="node2" class="node">
<title>DatabaseModule</title>
<polygon fill="#8dd3c7" stroke="black" points="166.35,-190 163.35,-194 142.35,-194 139.35,-190 55.65,-190 55.65,-154 166.35,-154 166.35,-190"/>
<text text-anchor="middle" x="111" y="-167.8" font-family="Times,serif" font-size="14.00">DatabaseModule</text>
</g>
<!-- DatabaseModule&#45;&gt;AppModule -->
<g id="edge2" class="edge">
<title>DatabaseModule&#45;&gt;AppModule</title>
<path fill="none" stroke="black" d="M111,-190.28C111,-211.32 111,-243 111,-243 111,-243 176.09,-243 176.09,-243"/>
<polygon fill="black" stroke="black" points="176.09,-246.5 186.09,-243 176.09,-239.5 176.09,-246.5"/>
</g>
<!-- HealthModule -->
<g id="node3" class="node">
<title>HealthModule</title>
<polygon fill="#8dd3c7" stroke="black" points="674.37,-190 671.37,-194 650.37,-194 647.37,-190 577.63,-190 577.63,-154 674.37,-154 674.37,-190"/>
<text text-anchor="middle" x="626" y="-167.8" font-family="Times,serif" font-size="14.00">HealthModule</text>
</g>
<!-- HealthModule&#45;&gt;AppModule -->
<g id="edge3" class="edge">
<title>HealthModule&#45;&gt;AppModule</title>
<path fill="none" stroke="black" d="M626,-190.01C626,-212.49 626,-248 626,-248 626,-248 279.84,-248 279.84,-248"/>
<polygon fill="black" stroke="black" points="279.84,-244.5 269.84,-248 279.84,-251.5 279.84,-244.5"/>
</g>
<!-- ProductPricingModule -->
<g id="node4" class="node">
<title>ProductPricingModule</title>
<polygon fill="#8dd3c7" stroke="black" points="432.54,-190 429.54,-194 408.54,-194 405.54,-190 289.46,-190 289.46,-154 432.54,-154 432.54,-190"/>
<text text-anchor="middle" x="361" y="-167.8" font-family="Times,serif" font-size="14.00">ProductPricingModule</text>
</g>
<!-- ProductPricingModule&#45;&gt;AppModule -->
<g id="edge4" class="edge">
<title>ProductPricingModule&#45;&gt;AppModule</title>
<path fill="none" stroke="black" d="M361,-190.27C361,-208.56 361,-234 361,-234 361,-234 279.72,-234 279.72,-234"/>
<polygon fill="black" stroke="black" points="279.72,-230.5 269.72,-234 279.72,-237.5 279.72,-230.5"/>
</g>
<!-- ProductsModule -->
<g id="node5" class="node">
<title>ProductsModule</title>
<polygon fill="#8dd3c7" stroke="black" points="559.04,-190 556.04,-194 535.04,-194 532.04,-190 450.96,-190 450.96,-154 559.04,-154 559.04,-190"/>
<text text-anchor="middle" x="505" y="-167.8" font-family="Times,serif" font-size="14.00">ProductsModule</text>
</g>
<!-- ProductsModule&#45;&gt;AppModule -->
<g id="edge5" class="edge">
<title>ProductsModule&#45;&gt;AppModule</title>
<path fill="none" stroke="black" d="M505,-190.13C505,-210.57 505,-241 505,-241 505,-241 279.77,-241 279.77,-241"/>
<polygon fill="black" stroke="black" points="279.77,-237.5 269.77,-241 279.77,-244.5 279.77,-237.5"/>
</g>
<!-- AppService -->
<g id="node7" class="node">
<title>AppService</title>
<ellipse fill="#fdb462" stroke="black" cx="145" cy="-104" rx="56.74" ry="18"/>
<text text-anchor="middle" x="145" y="-99.8" font-family="Times,serif" font-size="14.00">AppService</text>
</g>
<!-- AppService&#45;&gt;AppModule -->
<g id="edge6" class="edge">
<title>AppService&#45;&gt;AppModule</title>
<path fill="none" stroke="black" d="M175.52,-119.57C175.52,-153.49 175.52,-231 175.52,-231 175.52,-231 176.58,-231 176.58,-231"/>
<polygon fill="black" stroke="black" points="176.14,-234.5 186.14,-231 176.14,-227.5 176.14,-234.5"/>
</g>
<!-- ResponseService -->
<g id="node8" class="node">
<title>ResponseService</title>
<ellipse fill="#fdb462" stroke="black" cx="297" cy="-104" rx="77" ry="18"/>
<text text-anchor="middle" x="297" y="-99.8" font-family="Times,serif" font-size="14.00">ResponseService</text>
</g>
<!-- ResponseService&#45;&gt;ProductPricingModule -->
<g id="edge11" class="edge">
<title>ResponseService&#45;&gt;ProductPricingModule</title>
<path fill="none" stroke="black" d="M331.62,-120.12C331.62,-120.12 331.62,-143.6 331.62,-143.6"/>
<polygon fill="black" stroke="black" points="328.12,-143.6 331.62,-153.6 335.12,-143.6 328.12,-143.6"/>
</g>
<!-- ResponseService&#45;&gt;ProductsModule -->
<g id="edge13" class="edge">
<title>ResponseService&#45;&gt;ProductsModule</title>
<path fill="none" stroke="black" d="M369.61,-110C423.22,-110 486.91,-110 486.91,-110 486.91,-110 486.91,-143.73 486.91,-143.73"/>
<polygon fill="black" stroke="black" points="483.41,-143.73 486.91,-153.73 490.41,-143.73 483.41,-143.73"/>
</g>
<!-- ResponseService&#45;&gt;AppModule -->
<g id="edge7" class="edge">
<title>ResponseService&#45;&gt;AppModule</title>
<path fill="none" stroke="black" d="M280.31,-121.62C280.31,-155.63 280.31,-227 280.31,-227 280.31,-227 279.25,-227 279.25,-227"/>
<polygon fill="black" stroke="black" points="279.72,-223.5 269.72,-227 279.72,-230.5 279.72,-223.5"/>
</g>
<!-- ProductPricingRepository  -->
<g id="node9" class="node">
<title>ProductPricingRepository </title>
<polygon fill="#fb8072" stroke="black" points="1445.43,-190 1280.57,-190 1280.57,-154 1445.43,-154 1445.43,-190"/>
<text text-anchor="middle" x="1363" y="-167.8" font-family="Times,serif" font-size="14.00">ProductPricingRepository </text>
</g>
<!-- ProductPersistenceModule -->
<g id="node10" class="node">
<title>ProductPersistenceModule</title>
<polygon fill="#8dd3c7" stroke="black" points="1371.07,-122 1368.07,-126 1347.07,-126 1344.07,-122 1204.93,-122 1204.93,-86 1371.07,-86 1371.07,-122"/>
<text text-anchor="middle" x="1288" y="-99.8" font-family="Times,serif" font-size="14.00">ProductPersistenceModule</text>
</g>
<!-- ProductPersistenceModule&#45;&gt;ProductPricingRepository  -->
<g id="edge8" class="edge">
<title>ProductPersistenceModule&#45;&gt;ProductPricingRepository </title>
<path fill="none" stroke="black" stroke-dasharray="5,2" d="M1325.79,-122.22C1325.79,-122.22 1325.79,-143.73 1325.79,-143.73"/>
<polygon fill="black" stroke="black" points="1322.29,-143.73 1325.79,-153.73 1329.29,-143.73 1322.29,-143.73"/>
</g>
<!-- ProductRepository  -->
<g id="node11" class="node">
<title>ProductRepository </title>
<polygon fill="#fb8072" stroke="black" points="1262.49,-190 1137.51,-190 1137.51,-154 1262.49,-154 1262.49,-190"/>
<text text-anchor="middle" x="1200" y="-167.8" font-family="Times,serif" font-size="14.00">ProductRepository </text>
</g>
<!-- ProductPersistenceModule&#45;&gt;ProductRepository  -->
<g id="edge9" class="edge">
<title>ProductPersistenceModule&#45;&gt;ProductRepository </title>
<path fill="none" stroke="black" stroke-dasharray="5,2" d="M1233.6,-122.22C1233.6,-122.22 1233.6,-143.73 1233.6,-143.73"/>
<polygon fill="black" stroke="black" points="1230.1,-143.73 1233.6,-153.73 1237.1,-143.73 1230.1,-143.73"/>
</g>
<!-- ProductPricingService -->
<g id="node12" class="node">
<title>ProductPricingService</title>
<ellipse fill="#fdb462" stroke="black" cx="812" cy="-104" rx="97.85" ry="18"/>
<text text-anchor="middle" x="812" y="-99.8" font-family="Times,serif" font-size="14.00">ProductPricingService</text>
</g>
<!-- ProductPricingService&#45;&gt;ProductPricingModule -->
<g id="edge10" class="edge">
<title>ProductPricingService&#45;&gt;ProductPricingModule</title>
<path fill="none" stroke="black" d="M719.53,-98C599,-98 403.39,-98 403.39,-98 403.39,-98 403.39,-143.71 403.39,-143.71"/>
<polygon fill="black" stroke="black" points="399.89,-143.71 403.39,-153.71 406.89,-143.71 399.89,-143.71"/>
</g>
<!-- ProductsService -->
<g id="node13" class="node">
<title>ProductsService</title>
<ellipse fill="#fdb462" stroke="black" cx="1024" cy="-104" rx="73.57" ry="18"/>
<text text-anchor="middle" x="1024" y="-99.8" font-family="Times,serif" font-size="14.00">ProductsService</text>
</g>
<!-- ProductsService&#45;&gt;ProductsModule -->
<g id="edge12" class="edge">
<title>ProductsService&#45;&gt;ProductsModule</title>
<path fill="none" stroke="black" d="M1024,-122.19C1024,-130.28 1024,-138 1024,-138 1024,-138 523.09,-138 523.09,-138 523.09,-138 523.09,-143.81 523.09,-143.81"/>
<polygon fill="black" stroke="black" points="519.59,-143.81 523.09,-153.81 526.59,-143.81 519.59,-143.81"/>
</g>
</g>
</svg>
